<svg width="160" height="280" viewBox="0 0 160 280" fill="none" xmlns="http://www.w3.org/2000/svg">
<g clip-path="url(#clip0_16_3045)">
<path d="M2.326 1.25983C2.11454 1.74983 2.60794 2.65983 3.45375 3.21983C4.79296 4.19983 4.93393 4.89983 4.93393 11.6198C4.93393 18.1298 4.79296 19.0398 3.38327 20.4398C1.90309 21.9098 1.90309 21.9798 3.2423 22.3998C3.94714 22.6798 7.8238 22.9598 11.7709 23.0298C19.9471 23.1698 20.4405 22.8898 20.4405 17.5698C20.4405 13.7898 18.3965 13.5798 16.7049 17.1498C15.6476 19.3198 15.2247 19.5998 12.6872 19.5998H9.86785V11.6198C9.86785 4.19983 10.0088 3.56983 11.2775 3.14983C13.1806 2.51983 13.0397 0.699825 11.1366 0.559826C5.4978 0.139826 2.60794 0.349827 2.326 1.25983Z" fill="white"/>
<path d="M31.3656 0.839848C29.8854 1.67985 30.0264 2.58985 31.718 3.14985C32.9868 3.56985 33.1277 4.19985 33.1277 11.3398C33.1277 17.2898 32.9163 19.2498 32.141 19.8798C29.7445 21.6998 30.5903 22.5398 35.0308 22.7498C38.7665 22.9598 39.5418 22.8198 40.1762 21.6998C40.7401 20.6498 40.5991 20.2998 39.4713 19.9498C38.2026 19.5298 38.0617 18.8998 38.0617 11.5498C38.0617 5.17985 38.2731 3.56985 39.1189 3.21985C39.6828 3.00985 40.1762 2.30985 40.1762 1.60985C40.1762 0.559847 39.5418 0.349848 36.2995 0.279848C34.185 0.279848 32 0.559847 31.3656 0.839848Z" fill="white"/>
<path d="M50.4669 2.30985C50.2555 3.42985 50.044 5.10985 50.044 6.01985C50.044 8.53985 52.5815 8.18985 53.9207 5.52985C54.6255 4.19985 55.4713 3.49985 56.2467 3.63985C57.3039 3.84985 57.4449 4.96985 57.6564 11.6899C57.7973 19.0399 57.7269 19.5299 56.3876 19.9499C55.6123 20.1599 54.978 20.9999 54.978 21.7699C54.978 22.9599 55.5418 23.0999 60.2643 23.0999C64.9868 23.0999 65.5506 22.9599 65.5506 21.7699C65.5506 21.0699 64.9163 20.2999 64.141 20.0899C62.8017 19.7399 62.7313 19.1099 62.7313 11.6199C62.7313 3.84985 62.8017 3.49985 64.2114 3.49985C65.1982 3.49985 65.9031 4.19985 66.4669 5.59985C66.9603 6.85985 67.8062 7.69985 68.5815 7.69985C69.7092 7.69985 69.8502 7.20985 69.6388 3.98985L69.4273 0.349852H60.1233L50.8899 0.279852L50.4669 2.30985Z" fill="white"/>
<path d="M79.6476 3.98986C79.6476 7.06986 79.859 7.69986 80.9163 7.69986C81.6212 7.69986 82.467 6.85986 82.9604 5.59986C83.5242 4.19986 84.2291 3.49986 85.2159 3.49986C86.6256 3.49986 86.696 3.84986 86.696 11.2699C86.696 18.4799 86.5551 19.1099 85.1454 20.2999C84.2291 20.9999 83.7357 21.7699 84.0176 22.0499C84.2291 22.3299 86.6256 22.5399 89.2335 22.6099C93.1806 22.7499 94.0969 22.5399 94.3084 21.6299C94.4493 20.9299 93.956 20.2999 93.0397 20.0899C91.7004 19.7399 91.63 19.1799 91.63 11.6199C91.63 3.49986 91.63 3.49986 93.3216 3.49986C94.5903 3.49986 95.2247 4.05986 95.7886 5.59986C96.7753 8.53986 99.3833 8.53986 99.3833 5.66986C99.3833 4.54986 99.1013 2.79986 98.6784 1.81986L98.0441 0.0698586L88.8106 0.20986L79.6476 0.349859V3.98986Z" fill="white"/>
<path d="M108.899 1.25984C108.546 2.23984 109.604 3.42984 110.872 3.49984C111.154 3.49984 111.366 6.92984 111.366 11.1998C111.366 17.9898 111.225 19.0398 109.956 20.2998C109.11 21.1398 108.617 21.9798 108.828 22.2598C109.04 22.5398 112.846 22.8898 117.427 23.0298C126.802 23.2398 126.872 23.1698 126.872 17.9898C126.872 13.9298 125.392 13.5098 123.278 17.1498C122.009 19.2498 121.445 19.5998 119.048 19.5998H116.3V11.5498C116.3 3.56984 116.3 3.49984 118.062 3.07984C119.048 2.86983 119.824 2.16984 119.824 1.46984C119.824 -0.140163 109.533 -0.350164 108.899 1.25984Z" fill="white"/>
<path d="M137.445 1.25982C137.445 2.02981 137.938 2.79981 138.502 3.07981C139.348 3.35982 139.559 4.96981 139.559 11.5498C139.559 18.1298 139.348 19.7398 138.502 20.0198C137.938 20.2998 137.445 20.8598 137.445 21.3498C137.445 22.3998 142.52 23.0298 149.709 22.8898C155.066 22.7498 155.63 22.2598 155.7 17.6398C155.771 14.6298 153.727 14.5598 151.965 17.5698C150.837 19.4598 150.414 19.6698 147.806 19.4598C144.846 19.2498 144.846 19.2498 144.634 16.3098L144.423 13.3698L147.806 13.1598C150.696 12.9498 151.189 12.7398 151.401 11.4098C151.612 10.0098 151.26 9.86982 148.229 9.65982L144.846 9.44982L144.634 6.43982L144.423 3.49981H147.524C150.132 3.49981 150.767 3.77982 151.401 5.24981C151.894 6.29981 152.811 6.99981 153.656 6.99981C154.996 6.99981 155.137 6.64981 154.925 3.77982L154.714 0.559814L146.115 0.209814C137.797 -0.140186 137.445 -0.0701847 137.445 1.25982Z" fill="white"/>
<path d="M0.986776 47.9499C0.0704765 50.1898 1.26871 50.9599 5.77973 51.2399C8.24669 51.3099 42.7841 51.3799 82.6079 51.3799L154.925 51.3099L154.996 127.19C155.066 168.98 155.278 203.42 155.489 203.77C155.982 204.61 158.379 204.54 158.943 203.7C159.507 202.72 159.577 48.6499 159.013 47.6699C158.661 47.1799 134.485 46.8999 79.9295 46.8999C10.8546 46.8999 1.3392 47.0399 0.986776 47.9499Z" fill="white"/>
<path d="M1.05726 74.8299C0.493387 75.8099 0.352418 229.88 0.986779 230.86C1.3392 231.49 20.511 231.63 80.2114 231.49L158.943 231.35V229.6C158.943 227.99 158.661 227.85 154.714 227.5C152.388 227.29 117.709 227.15 77.7445 227.15L4.93392 227.29L5.0044 151.41C5.0044 109.69 4.79295 75.2499 4.58149 74.8999C4.01762 73.9899 1.62114 73.9899 1.05726 74.8299Z" fill="white"/>
<path d="M78.9427 80.0798C71.8943 82.5999 65.9031 86.1699 71.3304 84.6299C75.5595 83.4398 94.8018 84.2099 94.0264 85.5399C93.7445 85.8899 92.1234 86.1699 90.2908 86.0299C88.5286 85.9599 83.1013 85.8899 78.2379 85.9599L69.4978 86.0999L76.5463 93.0299C84.8634 101.22 85.7093 103.04 86.7665 115.43C87.4009 123.76 87.1189 125.3 84.652 125.3C84.0176 125.3 79.0132 123.06 73.5154 120.4C63.859 115.71 63.2952 115.29 60.8282 111.51C58.2908 107.73 58.1498 107.31 58.1498 101.85C58.1498 96.5299 58.3612 95.6898 60.7577 91.0699C62.9427 87.0098 63.1542 86.1699 62.0264 86.7999C59.4185 88.1999 57.304 91.9099 56.8106 95.9699C56.3877 99.8899 54.0617 106.26 50.1145 114.45C46.3084 122.22 45.6035 124.25 45.1101 128.8C43.9824 138.67 47.4361 157.08 51.5242 162.75C52.5815 164.29 54.2026 166.74 54.978 168.28C55.8238 169.75 60.1234 174.51 64.4934 178.85C72.1057 186.27 72.8106 186.83 78.0264 188.65C86.7665 191.66 88.9515 192.64 92.6872 195.44C95.0132 197.19 96.9868 198.1 98.467 198.1C101.216 198.1 101.498 197.68 101.709 193.41C101.85 191.17 102.978 187.88 105.022 183.75C113.198 166.88 116.793 147.84 114.326 134.75C111.366 119.42 103.753 108.08 90.4317 99.3999C87.1894 97.2999 84.5815 95.4099 84.5815 95.1999C84.5815 94.9899 86.696 94.4299 89.2335 93.9398C94.3084 92.9599 102.062 89.7399 103.542 87.9899C105.515 85.5399 103.824 84.3499 94.3084 81.1999C88.5991 79.3099 82.2555 78.8899 78.9427 80.0798Z" fill="white"/>
<path d="M63.0837 90.7898C59.207 97.7898 58.9956 105.56 62.5903 110.81C64.3524 113.33 66.1145 114.45 74.2202 118.44C79.5066 121.1 84.1586 123.2 84.5815 123.2C85.0749 123.2 85.2158 121.87 85.0044 119.14C84.7929 116.97 84.4405 113.12 84.2291 110.6C83.5947 104.02 82.185 101.5 74.7136 94.1498C66.8194 86.3098 65.8326 86.0298 63.0837 90.7898ZM70.1321 97.0198C71.4713 99.1198 72.5991 101.01 72.5991 101.22C72.5991 101.43 74.3612 104.79 76.5462 108.64C78.6608 112.49 80.2819 115.78 80.1409 115.99C79.2951 116.76 73.5154 108.85 70.7665 103.18C65.5506 92.5398 65.2687 89.3898 70.1321 97.0198Z" fill="white"/>
<path d="M109.392 256.2C106.361 256.9 103.189 259.91 102.132 263.06C101.639 264.46 101.498 267.33 101.709 269.71C102.062 273.28 102.414 274.26 104.529 276.29C108.969 280.77 117.145 280.77 120.881 276.36C124.264 272.37 124.828 265.58 122.079 260.96C119.824 257.11 114.256 255.01 109.392 256.2ZM114.256 259.7C115.947 259.7 117.709 264.32 117.709 268.66C117.709 272.44 117.427 273.35 115.947 274.82C111.154 279.58 105.163 270.83 107.841 262.92C108.687 260.33 110.802 258.79 112.634 259.42C113.198 259.56 113.903 259.7 114.256 259.7Z" fill="white"/>
<path d="M1.40967 257.53C1.40967 258.23 2.04403 259 2.81936 259.21C4.15857 259.56 4.22905 260.19 4.22905 267.68C4.22905 275.03 4.08808 275.8 2.81936 276.5C2.04403 276.92 1.40967 277.69 1.40967 278.25C1.40967 279.09 2.96033 279.3 10.5022 279.3H19.5242L20.0176 276.08C20.652 271.32 20.5815 270.9 19.1718 270.9C18.3965 270.9 17.2687 271.88 16.4934 273.35C15.2951 275.59 14.8722 275.8 12.1233 275.8H9.09249L9.30394 267.54C9.51539 259.63 9.58588 259.35 11.1365 259.14C12.1233 259 12.6872 258.44 12.6872 257.53C12.6872 256.34 12.1233 256.2 7.04843 256.2C1.97354 256.2 1.40967 256.34 1.40967 257.53Z" fill="white"/>
<path d="M30.6608 256.9C30.0969 257.88 30.8722 259 32.141 259C33.6211 259 33.6211 275.66 32.0705 276.22C31.5066 276.5 31.0132 277.27 31.0132 277.97C31.0132 279.23 31.6476 279.3 40.1057 279.3H49.1982L49.6211 277.13C49.8326 275.94 50.044 274.19 50.044 273.28C50.044 270.76 47.5066 271.11 46.1674 273.7C45.1806 275.59 44.6872 275.8 41.9383 275.8H38.7665V272.72V269.57L42.1498 269.36C44.9691 269.15 45.4625 268.94 45.674 267.61C45.8854 266.35 45.4625 266 43.489 265.65C42.2202 265.37 40.5286 265.3 39.7533 265.44C38.2731 265.65 37.7092 264.04 38.3436 261.38C38.7665 259.91 39.1894 259.7 41.8678 259.7C44.5462 259.7 45.0396 259.91 45.3921 261.45C45.7445 262.71 46.3084 263.2 47.5771 263.2C49.0573 263.2 49.3392 262.85 49.3392 261.24C49.3392 256.13 49.4097 256.2 39.7533 256.2C34.7489 256.2 30.9427 256.48 30.6608 256.9Z" fill="white"/>
<path d="M61.0396 257.32C60.4053 258.93 60.4758 259 62.0969 259C63.5771 259 63.6476 259.14 63.1542 267.19C62.8018 273.07 62.3788 275.66 61.6035 276.22C61.0396 276.64 60.6167 277.55 60.6167 278.18C60.6167 279.09 61.3921 279.3 64.8458 279.3C68.5815 279.3 69.0749 279.16 69.0749 277.9C69.0749 277.13 68.5815 276.5 68.0176 276.5C67.1718 276.5 66.9603 275.38 66.9603 270.41C66.9603 267.05 67.2423 264.6 67.5242 265.02C67.8766 265.37 68.8634 267.68 69.7797 270.2C72.4581 277.69 73.163 278.74 75.207 278.46C76.8282 278.25 77.3216 277.41 79.5771 271.32C81.8326 265.3 82.185 264.67 82.5374 266.42C82.8194 267.54 83.0308 270.2 83.1013 272.37C83.1718 275.8 82.9603 276.36 81.7621 276.71C80.9868 276.92 80.3524 277.55 80.3524 278.18C80.3524 279.09 81.2687 279.3 85.6388 279.3C90.3612 279.3 90.9251 279.16 90.9251 277.97C90.9251 277.27 90.2907 276.5 89.5154 276.29C88.3877 276.01 88.1057 275.31 88.1057 273.21C88.1057 271.74 87.8943 267.96 87.6123 264.74C87.2599 259.7 87.3304 259 88.3877 259C89.022 259 89.5154 258.44 89.5154 257.6C89.5154 256.34 89.022 256.2 85.2863 256.2C81.4802 256.2 80.9868 256.41 80.4229 257.74C76.7577 268.17 75.9119 270.2 75.489 270.2C75.207 270.2 73.9383 267.05 72.5991 263.2L70.2731 256.2H65.9031C62.5198 256.2 61.3921 256.48 61.0396 257.32Z" fill="white"/>
<path d="M134.626 257.53C134.626 258.3 135.189 259.07 135.894 259.28C136.952 259.63 137.093 260.61 137.022 266.84C136.952 276.15 136.952 276.5 135.683 276.5C135.119 276.5 134.626 277.13 134.626 277.9C134.626 279.16 135.119 279.3 139.207 279.3C143.225 279.3 143.789 279.16 143.789 277.97C143.789 277.27 143.154 276.5 142.379 276.29C141.11 275.94 140.969 275.31 140.969 270.97C140.969 268.24 141.181 266 141.533 266C141.815 266 144.211 269.01 146.89 272.65C151.048 278.39 151.965 279.3 153.727 279.3H155.771V269.15C155.771 260.61 155.912 259 156.828 259C157.392 259 157.885 258.37 157.885 257.6C157.885 256.34 157.392 256.2 153.656 256.2C149.921 256.2 149.427 256.34 149.427 257.6C149.427 258.37 149.921 259 150.485 259C151.33 259 151.542 260.12 151.542 264.74C151.542 267.96 151.26 270.2 150.907 269.78C150.626 269.43 148.229 266.21 145.621 262.64L140.828 256.2H137.727C135.119 256.2 134.626 256.41 134.626 257.53Z" fill="white"/>
</g>
<defs>
<clipPath id="clip0_16_3045">
<rect width="160" height="280" fill="white"/>
</clipPath>
</defs>
</svg>
